<svg width="22" height="24" viewBox="0 0 22 24" fill="none" xmlns="http://www.w3.org/2000/svg">
<path fill-rule="evenodd" clip-rule="evenodd" d="M20.5704 2.47636V0.757922H17.4812V2.47636H20.5704ZM16.7234 0.378937C16.7234 0.169641 16.8929 0 17.1023 0H20.9494C21.1587 0 21.3283 0.169594 21.3283 0.378937V2.47636H21.3317C21.541 2.47636 21.7106 2.64595 21.7106 2.8553V4.08644C21.7106 4.29577 21.541 4.46557 21.3317 4.46559C21.3317 4.46559 21.3317 4.46559 21.3317 4.46559C21.3306 4.46559 21.3294 4.46559 21.3283 4.46558C21.1233 4.46379 20.9572 4.29932 20.9528 4.09494C20.9527 4.09261 20.9527 4.09028 20.9527 4.08794C20.9527 4.08751 20.9527 4.08708 20.9527 4.08666C20.9527 4.08664 20.9527 4.08667 20.9527 4.08666V3.23419H17.099V6.08794H20.9528V5.27381C20.9528 5.16831 20.9959 5.07291 21.0654 5.00422C21.1338 4.93662 21.2279 4.89489 21.3317 4.89488C21.3317 4.89488 21.3317 4.89488 21.3317 4.89488C21.416 4.89488 21.494 4.9224 21.5569 4.96896C21.6502 5.03798 21.7107 5.14881 21.7107 5.27381V6.20053C21.7107 6.28611 21.6939 6.36784 21.6636 6.44263C21.6374 6.50696 21.6012 6.56615 21.5569 6.61824C21.4956 6.69026 21.4188 6.74868 21.3317 6.78831C21.2505 6.82526 21.1603 6.84586 21.0654 6.84586H20.3149V7.55616C20.3149 7.7655 20.1453 7.93509 19.9359 7.93509H19.4048V15.2397C19.4048 16.1395 19.2685 17.0081 19.0153 17.8258C18.7223 18.7725 18.2727 19.651 17.697 20.431C17.2981 20.9715 16.8387 21.4646 16.3288 21.9004C16.2828 21.9397 16.2364 21.9785 16.1896 22.0169C16.1517 22.048 16.1135 22.0788 16.075 22.1093C14.5812 23.2926 12.6939 24 10.6446 24C10.631 24 10.6175 23.9996 10.6039 23.9994C10.6019 23.9994 10.5999 23.9994 10.5979 23.9994C10.5964 23.9994 10.5949 23.9994 10.5933 23.9994C10.5878 23.9995 10.5824 23.9996 10.5769 23.9997C10.5683 23.9998 10.5598 24 10.5512 24C10.366 24 10.1825 23.9917 10.0011 23.9764C10.0001 23.9763 9.99899 23.9762 9.99792 23.9761C9.99562 23.9759 9.99333 23.9758 9.99104 23.9756C7.94204 23.8237 6.08689 22.964 4.66997 21.6408C4.63403 21.6072 4.59838 21.5733 4.56301 21.5392C4.51939 21.4971 4.4762 21.4545 4.43345 21.4115C3.96313 20.9382 3.54636 20.4117 3.1931 19.8419C2.75321 19.1323 2.41181 18.3555 2.18813 17.5308C2.15283 17.4007 2.12046 17.2693 2.09109 17.1368C1.95566 16.5258 1.88423 15.8909 1.88423 15.2397C1.88423 15.2397 1.88423 15.2397 1.88423 15.2397V11.0395H0.852463C0.778152 11.0395 0.707159 11.0251 0.64215 10.9988C0.435486 10.9153 0.289307 10.7126 0.289307 10.4764V8.16248C0.289307 7.95314 0.4589 7.78355 0.668244 7.78355H0.801604V6.68878C0.801604 6.63651 0.812177 6.58672 0.831303 6.54142C0.888775 6.40532 1.02347 6.30984 1.18054 6.30984H3.34588C3.50292 6.30984 3.63763 6.40532 3.69512 6.54142C3.71425 6.58672 3.72482 6.63651 3.72482 6.68878V7.78355H3.85818C4.06753 7.78355 4.23712 7.95314 4.23712 8.16248V10.4764C4.23712 10.7126 4.09092 10.9154 3.88423 10.9988C3.81923 11.0251 3.74826 11.0395 3.67396 11.0395H2.64215V15.2397C2.64215 15.8693 2.71527 16.4822 2.85346 17.0703C2.88995 17.2256 2.93097 17.3792 2.97639 17.5308C2.97639 17.5308 2.97638 17.5308 2.97639 17.5308C3.37544 18.8636 4.11333 20.0514 5.08945 20.994C4.45191 19.9922 4.08207 18.8039 4.08206 17.5309C4.08206 17.5309 4.08206 17.5309 4.08206 17.5309C4.08206 17.3392 4.09044 17.1494 4.10685 16.9619C4.15947 16.3607 4.29469 15.7828 4.50104 15.2397C4.5449 15.1243 4.59197 15.0104 4.64215 14.8982C5.65243 12.6395 7.92103 11.0617 10.5512 11.0617C10.5512 11.0617 10.5512 11.0617 10.5512 11.0617C13.3572 11.0617 15.7517 12.8574 16.6458 15.3601C16.8837 16.026 17.0153 16.742 17.0203 17.4875C17.0204 17.502 17.0204 17.5164 17.0204 17.5308C17.0204 17.5308 17.0204 17.5308 17.0204 17.5308C17.0204 18.9943 16.5317 20.3456 15.7092 21.4307C16.8849 20.4671 17.7824 19.176 18.2607 17.698C18.2786 17.6425 18.296 17.5868 18.3128 17.5308C18.5301 16.8047 18.647 16.0356 18.647 15.2397C18.647 15.2397 18.647 15.2397 18.647 15.2397V7.93509H18.1159C18.1159 7.93509 18.1159 7.93509 18.1159 7.93509C17.9066 7.93507 17.737 7.76548 17.737 7.55616V6.84586H16.9864C16.7897 6.84586 16.6133 6.75739 16.4948 6.61813C16.399 6.5055 16.3411 6.35966 16.3411 6.20053V2.8553C16.3411 2.64595 16.5107 2.47636 16.7201 2.47636H16.7234V0.378937ZM18.4948 7.17722H19.5569V6.84586H18.4948V7.17722ZM15.2135 20.826C15.5123 20.4045 15.7555 19.941 15.9321 19.4461C16.146 18.8472 16.2625 18.2024 16.2625 17.5309C16.2625 17.5309 16.2625 17.5309 16.2625 17.5309C16.2625 17.4739 16.2616 17.4171 16.26 17.3605C16.1695 14.2898 13.6434 11.8196 10.5512 11.8196C10.5512 11.8196 10.5512 11.8196 10.5512 11.8196C7.61622 11.8196 5.19112 14.045 4.87482 16.8971C4.85174 17.1052 4.83989 17.3167 4.83988 17.5308C4.83988 17.5308 4.83988 17.5308 4.83988 17.5308C4.83988 18.0396 4.90677 18.5332 5.03221 19.003C5.16764 19.5102 5.37132 19.9898 5.63278 20.4314C5.66388 20.4839 5.6958 20.5359 5.72852 20.5874C5.75487 20.6288 5.78174 20.6699 5.80911 20.7105C6.74829 22.1064 8.28707 23.067 10.0533 23.2202C10.0543 23.2203 10.0552 23.2204 10.0562 23.2205C10.0582 23.2206 10.0602 23.2208 10.0621 23.2209C10.2239 23.2326 10.387 23.2392 10.5512 23.2411C10.5653 23.2413 10.5793 23.2414 10.5934 23.2415C10.5949 23.2415 10.5963 23.2415 10.5978 23.2415C10.5986 23.2415 10.5994 23.2415 10.6002 23.2415C10.615 23.2414 10.6298 23.2412 10.6446 23.241C12.4115 23.2124 13.9861 22.3776 15.0154 21.0892C15.0459 21.0509 15.076 21.0123 15.1056 20.9732C15.1423 20.9247 15.1783 20.8756 15.2135 20.826ZM2.96685 7.06772H1.55948V7.78355H2.96685V7.06772ZM1.04718 8.54142V10.2817H3.47915V8.54142H1.04718Z" fill="#323232"/>
</svg>
