<svg viewBox="0 0 24 24" fill="currentColor" class="itemIcon-0-2-344 icon-0-2-31"><path d="M16.2682 3.14021C16.6218 2.71593 16.5645 2.08537 16.1402 1.7318C15.7159 1.37824 15.0853 1.43556 14.7318 1.85984L12.2318 4.85984C11.9227 5.23069 11.9227 5.76936 12.2318 6.14021L14.7318 9.14021C15.0853 9.56449 15.7159 9.62181 16.1402 9.26825C16.5645 8.91468 16.6218 8.28412 16.2682 7.85984L15.135 6.50003H18V11C18 11.5523 18.4477 12 19 12C19.5523 12 20 11.5523 20 11V6.50003C20 5.39546 19.1046 4.50003 18 4.50003H15.135L16.2682 3.14021Z"></path><path fill-rule="evenodd" clip-rule="evenodd" d="M4 3H7.5C8.05 3 8.5 3.45 8.5 4C8.5 5.25 8.7 6.45 9.07 7.57C9.18 7.92 9.1 8.31 8.82 8.59L6.62 10.79C8.06 13.62 10.38 15.93 13.21 17.38L15.41 15.18C15.61 14.99 15.86 14.89 16.12 14.89C16.22 14.89 16.33 14.9 16.43 14.94C17.55 15.31 18.76 15.51 20 15.51C20.55 15.51 21 15.96 21 16.51V20C21 20.55 20.55 21 20 21C10.61 21 3 13.39 3 4C3 3.45 3.45 3 4 3ZM6.99 7.59C6.75 6.76 6.6 5.89 6.54 5H5.03C5.12 6.32 5.38 7.59 5.79 8.79L6.99 7.59ZM19 17.47C18.12 17.41 17.25 17.26 16.4 17.02L15.2 18.21C16.41 18.61 17.68 18.87 19 18.96V17.47Z"></path></svg>
