<svg viewBox="0 0 24 24" fill="currentColor" class="icon-0-2-31"><path fill-rule="evenodd" clip-rule="evenodd" d="M10.5547 2.16806C11.0142 2.47441 11.1384 3.09528 10.8321 3.55481L7.20184 9.00012H16.7982L13.168 3.55481C12.8616 3.09528 12.9858 2.47441 13.4453 2.16806C13.9048 1.8617 14.5257 1.98588 14.8321 2.44541L19.2019 9.00014H22C22.55 9.00014 23 9.45014 23 10.0001L22.97 10.2701L20.43 19.5401C20.19 20.3801 19.42 21.0001 18.5 21.0001H5.5C4.58 21.0001 3.81 20.3801 3.58 19.5401L1.04 10.2701C1.01 10.1801 1 10.0901 1 10.0001C1 9.45014 1.45 9.00014 2 9.00014H4.79813L9.16795 2.44541C9.4743 1.98588 10.0952 1.8617 10.5547 2.16806ZM18.5 19.0001L5.51 19.0101L3.31 11.0001H20.7L18.5 19.0001Z"></path></svg>
