<svg xmlns="http://www.w3.org/2000/svg" width="25" height="24" viewBox="0 0 25 24" fill="none">
<path fill-rule="evenodd" clip-rule="evenodd" d="M5.06032 10.1706C5.89047 6.5526 9.13007 3.854 13 3.854C15.2479 3.854 17.2815 4.76323 18.7565 6.23639C19.1472 6.62668 19.7804 6.6263 20.1707 6.23554C20.561 5.84478 20.5606 5.21162 20.1698 4.82133C18.3352 2.98892 15.7992 1.854 13 1.854C8.02109 1.854 3.87986 5.44032 3.01859 10.1706H1.46468C1.04543 10.1706 0.812344 10.6556 1.07425 10.983L3.69227 14.2555C3.89243 14.5057 4.27297 14.5057 4.47314 14.2555L7.09115 10.983C7.35306 10.6556 7.11997 10.1706 6.70072 10.1706H5.06032ZM24.5352 13.829H22.9813C22.1201 18.5593 17.9788 22.1457 13 22.1457C10.1958 22.1457 7.6558 21.0067 5.82045 19.1687C5.43021 18.7779 5.43068 18.1447 5.82149 17.7545C6.21231 17.3642 6.84547 17.3647 7.23571 17.7555C8.71125 19.2332 10.7481 20.1457 13 20.1457C16.8699 20.1457 20.1095 17.447 20.9396 13.829H19.2991C18.8799 13.829 18.6468 13.344 18.9087 13.0166L21.5267 9.74413C21.7269 9.49392 22.1074 9.49392 22.3076 9.74413L24.9256 13.0166C25.1875 13.344 24.9544 13.829 24.5352 13.829ZM9.71799 8.09202C9.5 8.51984 9.5 9.0799 9.5 10.2V13.8C9.5 14.9201 9.5 15.4802 9.71799 15.908C9.90973 16.2843 10.2157 16.5903 10.592 16.782C11.0198 17 11.5799 17 12.7 17H13.3C14.4201 17 14.9802 17 15.408 16.782C15.7843 16.5903 16.0903 16.2843 16.282 15.908C16.5 15.4802 16.5 14.9201 16.5 13.8V10.2C16.5 9.0799 16.5 8.51984 16.282 8.09202C16.0903 7.71569 15.7843 7.40973 15.408 7.21799C14.9802 7 14.4201 7 13.3 7H12.7C11.5799 7 11.0198 7 10.592 7.21799C10.2157 7.40973 9.90973 7.71569 9.71799 8.09202Z" fill="#3F4E5D" fill-opacity="0.6"/>
</svg>
