<svg viewBox="0 0 24 24" fill="currentColor" class="icon-0-2-31"><path d="M9.26709 4C9.68709 2.8 10.8171 2 12.0871 2C13.3571 2 14.4871 2.8 14.9171 4H20.0871C20.6394 4 21.0871 4.44772 21.0871 5C21.0871 5.55228 20.6394 6 20.0871 6H19.1371L22.0871 13C22.6471 15 21.0871 16 18.5871 16C16.0871 16 14.6171 15 15.0871 13L18.0371 6H14.9071C14.5871 6.85 13.9371 7.5 13.0871 7.82C13.0871 7.82 12.3905 7.99805 12 8C11.6095 8.00195 11.0871 7.83 11.0871 7.83C10.2371 7.5 9.58709 6.85 9.25709 6H6.13709L9.08709 13C9.64709 15 8.08709 16 5.58709 16C3.08709 16 1.61709 15 2.08709 13L5.03709 6H4.08709C3.53481 6 3.08709 5.55228 3.08709 5C3.08709 4.44772 3.53481 4 4.08709 4H9.26709ZM12.7942 4.29289C12.6067 4.10536 12.3523 4 12.0871 4C11.8219 4 11.5675 4.10536 11.38 4.29289C11.1924 4.48043 11.0871 4.73478 11.0871 5C11.0871 5.26522 11.1924 5.51957 11.38 5.70711C11.5675 5.89464 11.8219 6 12.0871 6C12.3523 6 12.6067 5.89464 12.7942 5.70711C12.9817 5.51957 13.0871 5.26522 13.0871 5C13.0871 4.73478 12.9817 4.48043 12.7942 4.29289ZM7.08709 13L5.58709 9.25L4.08709 13H7.08709ZM20.0871 13L18.5871 9.25L17.0871 13H20.0871Z"></path><path d="M4.08709 19C3.53481 19 3.08709 19.4477 3.08709 20C3.08709 20.5523 3.53481 21 4.08709 21H20.0871C20.6394 21 21.0871 20.5523 21.0871 20C21.0871 19.4477 20.6394 19 20.0871 19H4.08709Z"></path></svg>
