<svg width="19" height="24" viewBox="0 0 19 24" fill="none" xmlns="http://www.w3.org/2000/svg">
<path d="M10.98 23.4795C10.8407 23.2992 10.7548 23.0834 10.732 22.8567C10.7092 22.63 10.7504 22.4014 10.851 22.197C11.115 21.684 11.2185 21.0975 11.151 20.52C11.0957 20.1079 10.9596 19.7108 10.7505 19.3515C10.5441 18.9968 10.2681 18.6876 9.93903 18.4425C8.81754 17.5996 8.03058 16.387 7.71753 15.0195C5.15553 18.378 6.13803 20.2845 7.36503 21.9645C7.5089 22.1614 7.58467 22.3999 7.58088 22.6438C7.57709 22.8876 7.49395 23.1236 7.34403 23.316C7.19126 23.5107 6.98629 23.6579 6.75303 23.7405C6.52247 23.8214 6.2733 23.8334 6.03603 23.775C4.37853 23.37 2.81853 22.599 1.76103 21.3705C1.16158 20.6881 0.700072 19.896 0.402031 19.038C0.100595 18.1727 -0.0332902 17.2579 0.00753139 16.3425C0.00753139 16.3425 -0.191969 12.648 4.26303 9.0285C4.26303 9.0285 9.52803 4.5615 7.70103 1.2585C7.63371 1.09602 7.61376 0.917809 7.64349 0.744471C7.67322 0.571133 7.75142 0.409753 7.86903 0.278997C7.98335 0.150796 8.13434 0.0608705 8.30152 0.0214243C8.4687 -0.018022 8.64396 -0.00507906 8.80353 0.0584966L9.02253 0.145497C11.0056 1.39906 12.5556 3.23179 13.4625 5.3955C14.3325 7.515 14.3265 9.9855 13.7385 12.186C14.226 11.748 14.6325 11.2245 14.94 10.6365L14.9835 10.5405C15.2805 9.825 16.215 10.053 16.566 10.521C16.695 10.7265 20.004 15.5355 18.2265 19.593C17.5766 20.8223 16.6274 21.868 15.4665 22.6335C14.4925 23.2799 13.404 23.7345 12.2595 23.973C12.023 24.0228 11.7771 24.003 11.5515 23.916C11.324 23.8275 11.1259 23.6768 10.98 23.481V23.4795ZM8.33103 11.838C8.47108 11.765 8.63336 11.747 8.786 11.7875C8.93864 11.828 9.07062 11.9242 9.15603 12.057C9.21603 12.1455 9.25503 12.246 9.26853 12.354L9.33603 12.8775C9.36603 13.644 9.35703 14.445 9.65553 15.1815C9.96453 15.9375 10.4445 16.6065 11.0535 17.1285C11.8381 17.6447 12.4454 18.3892 12.7935 19.2615C13.1235 20.1075 13.1685 21.0465 12.9195 21.921C13.6813 21.6807 14.3894 21.2951 15.0045 20.7855L15.159 20.6595C15.663 20.244 16.0785 19.725 16.3785 19.134C16.68 18.5445 16.8615 17.8965 16.9095 17.2305C17.007 15.693 16.4835 14.1495 15.669 12.7725C15.297 13.3125 14.784 13.731 14.1915 13.9785C13.821 14.136 13.428 14.2335 13.0275 14.2635C12.7981 14.2783 12.5694 14.2261 12.369 14.1135C12.1656 13.9979 11.9987 13.8274 11.8875 13.6215C11.7955 13.4555 11.7429 13.2705 11.7338 13.0809C11.7247 12.8913 11.7593 12.7021 11.835 12.528C12.453 11.07 12.645 9.453 12.3825 7.8825C12.0718 6.0857 11.2112 4.42957 9.91953 3.1425C9.68553 6.45 6.29403 9.5295 5.59803 10.1925C5.49015 10.2941 5.37805 10.3912 5.26203 10.4835C1.62303 13.431 1.87203 16.116 1.87203 16.2345C1.79977 17.3011 2.03896 18.3658 2.56053 19.299C3.10803 20.2665 3.89553 21.0645 4.84053 21.609C3.75003 19.212 3.75003 16.335 7.77453 12.21L8.33253 11.835L8.33103 11.838Z" fill="#323232"/>
</svg>
