<svg width="24" height="21" viewBox="0 0 24 21" fill="none" xmlns="http://www.w3.org/2000/svg">
<path fill-rule="evenodd" clip-rule="evenodd" d="M9.61525 6.49898C9.97497 6.72432 10.3893 6.84759 10.8138 6.85548H13.1564C13.5815 6.84643 13.9963 6.72301 14.3572 6.49826C15.5662 5.67241 17.0262 5.29526 18.4844 5.43254L18.4866 5.43275C19.3698 5.51788 20.1375 6.03051 20.6601 6.59511C21.1707 7.14689 21.6117 7.92786 21.6154 8.7421L21.6535 10.8049L23.4981 16.8132C24.1857 18.42 23.1636 19.887 21.9389 20.5234C20.9617 21.035 20.0242 21.0042 19.2256 20.6987C18.4801 20.4136 17.8883 19.9035 17.4743 19.4911L16.3985 18.4885C16.1811 18.3374 15.9217 18.2637 15.5457 18.2407C15.341 18.2281 15.1194 18.2315 14.8586 18.2402C14.8054 18.242 14.7498 18.244 14.6923 18.2461C14.4828 18.2538 14.2487 18.2624 14.018 18.2624H9.93984C9.66137 18.2624 9.43613 18.2544 9.2339 18.2473C8.94521 18.2371 8.70342 18.2286 8.4206 18.2472C8.0434 18.272 7.77857 18.346 7.55758 18.4942L6.4823 19.4923C5.5913 20.3753 3.8733 21.3206 2.10796 20.5628C1.75695 20.4265 1.43604 20.2225 1.16351 19.9624C0.884671 19.6963 0.662173 19.3768 0.509241 19.023C0.356309 18.6692 0.276061 18.2882 0.273269 17.9028C0.270606 17.5352 0.338425 17.1707 0.472874 16.829L2.31368 10.8046L2.35597 8.74099C2.36009 7.92314 2.79709 7.14247 3.31046 6.58912C3.8353 6.02342 4.60323 5.51739 5.48522 5.43272L5.48704 5.43254C6.94562 5.29522 8.40604 5.67263 9.61525 6.49898ZM5.67556 7.42364C5.42481 7.448 5.08071 7.62164 4.77664 7.94938C4.46324 8.28719 4.35594 8.60961 4.35594 8.75267V8.76292L4.30757 11.1233L2.35874 17.5013L2.34014 17.5461C2.29512 17.6545 2.27237 17.7709 2.27322 17.8883C2.27407 18.0057 2.29851 18.1217 2.34509 18.2295C2.39167 18.3372 2.45943 18.4345 2.54436 18.5156C2.62929 18.5966 2.72965 18.6598 2.83946 18.7013L2.86335 18.7103L2.88675 18.7206C3.5691 19.0191 4.45033 18.6959 5.08211 18.0642L5.09525 18.051L6.28925 16.9426L6.33665 16.908C6.98188 16.4366 7.67309 16.292 8.28948 16.2515C8.65012 16.2278 9.08798 16.2409 9.45987 16.252C9.64103 16.2574 9.80654 16.2624 9.93984 16.2624H14.018C14.2085 16.2624 14.3936 16.2556 14.5967 16.2482C14.6598 16.2459 14.7247 16.2436 14.792 16.2413C15.0624 16.2323 15.3633 16.2258 15.6678 16.2444C16.2888 16.2824 16.9869 16.428 17.6364 16.916L17.6788 16.9478L18.8633 18.0517L18.8757 18.0642C19.2224 18.4109 19.5799 18.6929 19.9402 18.8307C20.2546 18.951 20.5897 18.9725 21.0121 18.7511L21.0158 18.7491C21.3327 18.5847 21.5423 18.3578 21.6412 18.1494C21.7312 17.9598 21.7395 17.7751 21.6494 17.5774L21.6225 17.5183L19.659 11.123L19.6155 8.76189V8.75267C19.6155 8.61915 19.5097 8.29661 19.1922 7.95359C18.8848 7.62143 18.5407 7.4476 18.2956 7.42362C17.2978 7.32996 16.2987 7.58995 15.473 8.15817L15.4571 8.16912L15.4408 8.17945C14.7646 8.60725 13.9839 8.84105 13.1839 8.85532L13.175 8.85548H10.7975L10.7897 8.85536C9.98799 8.84288 9.20536 8.6085 8.52872 8.17823L8.51337 8.16847L8.4984 8.15817C7.67267 7.58991 6.67351 7.32993 5.67556 7.42364Z" fill="#323232"/>
<path fill-rule="evenodd" clip-rule="evenodd" d="M18.6519 12.0922C18.6519 11.9154 18.5085 11.772 18.3317 11.772H18.2275C18.0507 11.772 17.9073 11.9154 17.9073 12.0922V12.1964C17.9073 12.3732 18.0507 12.5166 18.2275 12.5166H18.3317C18.5085 12.5166 18.6519 12.3732 18.6519 12.1964V12.0922ZM18.3317 10.772C19.0608 10.772 19.6519 11.3631 19.6519 12.0922V12.1964C19.6519 12.9255 19.0608 13.5166 18.3317 13.5166H18.2275C17.4984 13.5166 16.9073 12.9255 16.9073 12.1964V12.0922C16.9073 11.3631 17.4984 10.772 18.2275 10.772H18.3317Z" fill="#323232"/>
<path fill-rule="evenodd" clip-rule="evenodd" d="M14.2837 12.0922C14.2837 11.9154 14.1404 11.772 13.9635 11.772H13.8593C13.6825 11.772 13.5392 11.9154 13.5392 12.0922V12.1964C13.5392 12.3732 13.6825 12.5166 13.8593 12.5166H13.9635C14.1404 12.5166 14.2837 12.3732 14.2837 12.1964V12.0922ZM13.9635 10.772C14.6926 10.772 15.2837 11.3631 15.2837 12.0922V12.1964C15.2837 12.9255 14.6926 13.5166 13.9635 13.5166H13.8593C13.1302 13.5166 12.5392 12.9255 12.5392 12.1964V12.0922C12.5392 11.3631 13.1302 10.772 13.8593 10.772H13.9635Z" fill="#323232"/>
<path fill-rule="evenodd" clip-rule="evenodd" d="M16.1476 14.7006C16.3244 14.7006 16.4678 14.5573 16.4678 14.3805V14.2762C16.4678 14.0994 16.3244 13.9561 16.1476 13.9561H16.0434C15.8666 13.9561 15.7232 14.0994 15.7232 14.2762V14.3805C15.7232 14.5573 15.8666 14.7006 16.0434 14.7006H16.1476ZM17.4678 14.3805C17.4678 15.1096 16.8767 15.7006 16.1476 15.7006H16.0434C15.3143 15.7006 14.7232 15.1096 14.7232 14.3805V14.2762C14.7232 13.5471 15.3143 12.9561 16.0434 12.9561H16.1476C16.8767 12.9561 17.4678 13.5471 17.4678 14.2762V14.3805Z" fill="#323232"/>
<path fill-rule="evenodd" clip-rule="evenodd" d="M16.1476 10.3279C16.3244 10.3279 16.4678 10.1846 16.4678 10.0078V9.90357C16.4678 9.72675 16.3244 9.58341 16.1476 9.58341H16.0434C15.8666 9.58341 15.7232 9.72675 15.7232 9.90357V10.0078C15.7232 10.1846 15.8666 10.3279 16.0434 10.3279H16.1476ZM17.4678 10.0078C17.4678 10.7369 16.8767 11.3279 16.1476 11.3279H16.0434C15.3143 11.3279 14.7232 10.7369 14.7232 10.0078V9.90357C14.7232 9.17447 15.3143 8.58341 16.0434 8.58341H16.1476C16.8767 8.58341 17.4678 9.17446 17.4678 9.90357V10.0078Z" fill="#323232"/>
<path fill-rule="evenodd" clip-rule="evenodd" d="M7.30721 10.8431C6.58984 10.8431 6.0083 11.4247 6.0083 12.142C6.0083 12.8594 6.58984 13.441 7.30721 13.441C8.02457 13.441 8.60611 12.8594 8.60611 12.142C8.60611 11.4247 8.02457 10.8431 7.30721 10.8431ZM5.0083 12.142C5.0083 10.8724 6.03756 9.84314 7.30721 9.84314C8.57686 9.84314 9.60611 10.8724 9.60611 12.142C9.60611 13.4117 8.57686 14.441 7.30721 14.441C6.03756 14.441 5.0083 13.4117 5.0083 12.142Z" fill="#323232"/>
<path fill-rule="evenodd" clip-rule="evenodd" d="M12.9878 7.82776C12.9878 7.82736 12.9878 7.82695 11.988 7.84638C10.9882 7.86581 10.9881 7.86536 10.9881 7.86488L10.9881 7.86383L10.9881 7.86137L10.988 7.85503L10.9878 7.83675C10.9878 7.8221 10.9878 7.80258 10.988 7.77847C10.9885 7.73027 10.9899 7.6636 10.9935 7.58079C11.0007 7.41541 11.0165 7.18425 11.0511 6.90625C11.1199 6.35367 11.265 5.59778 11.5743 4.79923C12.1996 3.18519 13.5286 1.34491 16.2292 0.769287L16.6461 2.72535C14.7973 3.11941 13.9015 4.32867 13.4393 5.52173C13.2049 6.12674 13.0905 6.71379 13.0358 7.15327C13.0087 7.37131 12.9968 7.54845 12.9916 7.66737C12.9891 7.72671 12.9882 7.77119 12.9879 7.7986L12.9878 7.82652L12.9878 7.82951L12.9878 7.82846L12.9878 7.82776Z" fill="#323232"/>
</svg>
