<svg width="20" height="20" viewBox="0 0 20 20" fill="none" xmlns="http://www.w3.org/2000/svg">
<path fill-rule="evenodd" clip-rule="evenodd" d="M10 2C7.87827 2 5.84344 2.84285 4.34315 4.34315C2.84285 5.84344 2 7.87827 2 10V16C2 16.5523 1.55228 17 1 17C0.447715 17 0 16.5523 0 16V10C5.96046e-08 7.34784 1.05357 4.8043 2.92893 2.92893C4.8043 1.05357 7.34784 0 10 0C12.6522 0 15.1957 1.05357 17.0711 2.92893C18.9464 4.8043 20 7.34784 20 10V16C20 16.5523 19.5523 17 19 17C18.4477 17 18 16.5523 18 16V10C18 7.87827 17.1571 5.84344 15.6569 4.34315C14.1566 2.84285 12.1217 2 10 2Z" fill="#323232"/>
<path fill-rule="evenodd" clip-rule="evenodd" d="M0 12C0 11.4477 0.447715 11 1 11H4C4.79565 11 5.55871 11.3161 6.12132 11.8787C6.68393 12.4413 7 13.2044 7 14V17C7 17.7956 6.68393 18.5587 6.12132 19.1213C5.55871 19.6839 4.79565 20 4 20H3C2.20435 20 1.44129 19.6839 0.87868 19.1213C0.31607 18.5587 0 17.7956 0 17V12ZM2 13V17C2 17.2652 2.10536 17.5196 2.29289 17.7071C2.48043 17.8946 2.73478 18 3 18H4C4.26522 18 4.51957 17.8946 4.70711 17.7071C4.89464 17.5196 5 17.2652 5 17V14C5 13.7348 4.89464 13.4804 4.70711 13.2929C4.51957 13.1054 4.26522 13 4 13H2ZM16 13C15.7348 13 15.4804 13.1054 15.2929 13.2929C15.1054 13.4804 15 13.7348 15 14V17C15 17.2652 15.1054 17.5196 15.2929 17.7071C15.4804 17.8946 15.7348 18 16 18H17C17.2652 18 17.5196 17.8946 17.7071 17.7071C17.8946 17.5196 18 17.2652 18 17V13H16ZM13.8787 11.8787C14.4413 11.3161 15.2043 11 16 11H19C19.5523 11 20 11.4477 20 12V17C20 17.7957 19.6839 18.5587 19.1213 19.1213C18.5587 19.6839 17.7957 20 17 20H16C15.2043 20 14.4413 19.6839 13.8787 19.1213C13.3161 18.5587 13 17.7957 13 17V14C13 13.2043 13.3161 12.4413 13.8787 11.8787Z" fill="#323232"/>
</svg>
