<svg width="26" height="20" viewBox="0 0 26 20" fill="none" xmlns="http://www.w3.org/2000/svg">
<path fill-rule="evenodd" clip-rule="evenodd" d="M1.89474 2.26316C1.89474 1.01324 2.908 0 4.15789 0H21.8421C23.092 0 24.1053 1.01327 24.1053 2.26316V13.6316C24.1053 13.7498 24.0962 13.866 24.0787 13.9793C25.1845 14.2701 26 15.2766 26 16.4737C26 17.8981 24.8454 19.0526 23.4211 19.0526H2.57895C1.15465 19.0526 0 17.8981 0 16.4737C0 15.2766 0.815542 14.2701 1.92129 13.9793C1.90381 13.866 1.89474 13.7498 1.89474 13.6316V2.26316ZM2.57895 15.8947C2.25918 15.8947 2 16.1539 2 16.4737C2 16.7935 2.25918 17.0526 2.57895 17.0526H23.4211C23.7409 17.0526 24 16.7935 24 16.4737C24 16.1539 23.7409 15.8947 23.4211 15.8947H2.57895ZM21.8421 13.8947C21.9875 13.8947 22.1053 13.7769 22.1053 13.6316V2.26316C22.1053 2.11781 21.9874 2 21.8421 2H4.15789C4.01256 2 3.89474 2.11782 3.89474 2.26316V13.6316C3.89474 13.7769 4.01255 13.8947 4.15789 13.8947H21.8421Z" fill="#323232"/>
</svg>
