<svg width="36" height="36" viewBox="0 0 36 36" fill="none" xmlns="http://www.w3.org/2000/svg">
<path d="M3 33H33" stroke="#323232" stroke-width="2" stroke-miterlimit="10" stroke-linecap="round" stroke-linejoin="round"/>
<path d="M4.4248 33L4.4998 14.955C4.4998 14.04 4.9348 13.1701 5.6548 12.6001L16.1549 4.42504C17.2349 3.58504 18.7497 3.58504 19.8447 4.42504L30.3449 12.585C31.0799 13.155 31.4999 14.025 31.4999 14.955V33" stroke="#323232" stroke-width="2" stroke-miterlimit="10" stroke-linejoin="round"/>
<path d="M19.5 25.5H16.5C15.255 25.5 14.25 26.505 14.25 27.75V33H21.75V27.75C21.75 26.505 20.745 25.5 19.5 25.5Z" stroke="#323232" stroke-width="2" stroke-miterlimit="10" stroke-linejoin="round"/>
<path d="M14.25 20.625H11.25C10.425 20.625 9.75 19.95 9.75 19.125V16.875C9.75 16.05 10.425 15.375 11.25 15.375H14.25C15.075 15.375 15.75 16.05 15.75 16.875V19.125C15.75 19.95 15.075 20.625 14.25 20.625Z" stroke="#323232" stroke-width="2" stroke-miterlimit="10" stroke-linejoin="round"/>
<path d="M24.75 20.625H21.75C20.925 20.625 20.25 19.95 20.25 19.125V16.875C20.25 16.05 20.925 15.375 21.75 15.375H24.75C25.575 15.375 26.25 16.05 26.25 16.875V19.125C26.25 19.95 25.575 20.625 24.75 20.625Z" stroke="#323232" stroke-width="2" stroke-miterlimit="10" stroke-linejoin="round"/>
<path d="M28.5002 10.5L28.4552 6H21.8552" stroke="#323232" stroke-width="2" stroke-miterlimit="10" stroke-linecap="round" stroke-linejoin="round"/>
</svg>
