<svg width="24" height="24" viewBox="0 0 24 24" fill="none" xmlns="http://www.w3.org/2000/svg">
<path fill-rule="evenodd" clip-rule="evenodd" d="M4 2C3.44771 2 3 2.44771 3 3V7H11C12.6569 7 14 8.34315 14 10V22H21.5C21.6398 22 21.7695 21.9455 21.8615 21.8555L21.8616 21.8553C21.9529 21.7662 22 21.6499 22 21.5333V2.46667C22 2.35018 21.9529 2.23388 21.8616 2.14459L21.8616 2.14457C21.7695 2.05453 21.6398 2 21.5 2H4ZM1 3C1 1.34315 2.34315 0 4 0H21.5C22.1558 0 22.7893 0.254512 23.2598 0.714587C23.7311 1.1754 24 1.80519 24 2.46667V21.5333C24 22.1947 23.7311 22.8246 23.2598 23.2855C22.7892 23.7456 22.1557 24 21.5 24H13C12.4477 24 12 23.5523 12 23V10C12 9.44771 11.5523 9 11 9H2C1.44772 9 1 8.55228 1 8V3Z" fill="#323232"/>
<path fill-rule="evenodd" clip-rule="evenodd" d="M7 7C7.55228 7 8 7.44772 8 8V19.5C8 20.0523 7.55228 20.5 7 20.5C6.44772 20.5 6 20.0523 6 19.5V8C6 7.44772 6.44772 7 7 7Z" fill="#323232"/>
<path fill-rule="evenodd" clip-rule="evenodd" d="M3 12.809C3 11.2576 4.25764 10 5.809 10H8.191C9.74236 10 11 11.2576 11 12.809V16.691C11 18.2424 9.74236 19.5 8.191 19.5H5.809C4.25764 19.5 3 18.2424 3 16.691V12.809ZM5.809 12C5.3622 12 5 12.3622 5 12.809V16.691C5 17.1378 5.3622 17.5 5.809 17.5H8.191C8.6378 17.5 9 17.1378 9 16.691V12.809C9 12.3622 8.6378 12 8.191 12H5.809Z" fill="#323232"/>
<path fill-rule="evenodd" clip-rule="evenodd" d="M0 23C0 22.4477 0.447715 22 1 22H13C13.5523 22 14 22.4477 14 23C14 23.5523 13.5523 24 13 24H1C0.447715 24 0 23.5523 0 23Z" fill="#323232"/>
<path fill-rule="evenodd" clip-rule="evenodd" d="M15 17C15 15.3431 16.3431 14 18 14C19.6569 14 21 15.3431 21 17C21 18.6569 19.6569 20 18 20C16.3431 20 15 18.6569 15 17ZM18 16C17.4477 16 17 16.4477 17 17C17 17.5523 17.4477 18 18 18C18.5523 18 19 17.5523 19 17C19 16.4477 18.5523 16 18 16Z" fill="#323232"/>
<path fill-rule="evenodd" clip-rule="evenodd" d="M5 3C5.55228 3 6 3.44772 6 4V5C6 5.55228 5.55228 6 5 6C4.44772 6 4 5.55228 4 5V4C4 3.44772 4.44772 3 5 3Z" fill="#323232"/>
<path fill-rule="evenodd" clip-rule="evenodd" d="M17 3C17.5523 3 18 3.44772 18 4V5C18 5.55228 17.5523 6 17 6C16.4477 6 16 5.55228 16 5V4C16 3.44772 16.4477 3 17 3Z" fill="#323232"/>
<path fill-rule="evenodd" clip-rule="evenodd" d="M14 3C14.5523 3 15 3.44772 15 4V5C15 5.55228 14.5523 6 14 6C13.4477 6 13 5.55228 13 5V4C13 3.44772 13.4477 3 14 3Z" fill="#323232"/>
<path fill-rule="evenodd" clip-rule="evenodd" d="M20 3C20.5523 3 21 3.44772 21 4V5C21 5.55228 20.5523 6 20 6C19.4477 6 19 5.55228 19 5V4C19 3.44772 19.4477 3 20 3Z" fill="#323232"/>
</svg>
