<svg width="26" height="20" viewBox="0 0 26 20" fill="none" xmlns="http://www.w3.org/2000/svg">
<path fill-rule="evenodd" clip-rule="evenodd" d="M15.75 1.75C15.75 1.19772 16.1977 0.75 16.75 0.75H19C19.4767 0.75 19.8871 1.08646 19.9806 1.55388L22.9806 16.5539C23.0889 17.0954 22.7377 17.6223 22.1961 17.7306C21.6546 17.8389 21.1277 17.4877 21.0194 16.9461L18.1802 2.75H16.75C16.1977 2.75 15.75 2.30228 15.75 1.75Z" fill="#323232"/>
<path fill-rule="evenodd" clip-rule="evenodd" d="M22 15.5C21.3096 15.5 20.75 16.0596 20.75 16.75C20.75 17.4404 21.3096 18 22 18C22.6904 18 23.25 17.4404 23.25 16.75C23.25 16.0596 22.6904 15.5 22 15.5ZM18.75 16.75C18.75 14.9551 20.2051 13.5 22 13.5C23.7949 13.5 25.25 14.9551 25.25 16.75C25.25 18.5449 23.7949 20 22 20C20.2051 20 18.75 18.5449 18.75 16.75Z" fill="#323232"/>
<path fill-rule="evenodd" clip-rule="evenodd" d="M4 15.5C3.30964 15.5 2.75 16.0596 2.75 16.75C2.75 17.4404 3.30964 18 4 18C4.69036 18 5.25 17.4404 5.25 16.75C5.25 16.0596 4.69036 15.5 4 15.5ZM0.75 16.75C0.75 14.9551 2.20507 13.5 4 13.5C5.79493 13.5 7.25 14.9551 7.25 16.75C7.25 18.5449 5.79493 20 4 20C2.20507 20 0.75 18.5449 0.75 16.75Z" fill="#323232"/>
<path fill-rule="evenodd" clip-rule="evenodd" d="M3 12.25C3 11.6977 3.44772 11.25 4 11.25C7.02728 11.25 9.5 13.7227 9.5 16.75C9.5 17.3023 9.05228 17.75 8.5 17.75C7.94772 17.75 7.5 17.3023 7.5 16.75C7.5 14.8273 5.92272 13.25 4 13.25C3.44772 13.25 3 12.8023 3 12.25Z" fill="#323232"/>
<path fill-rule="evenodd" clip-rule="evenodd" d="M21.03 9.90201C21.4983 10.1947 21.6407 10.8117 21.348 11.28L17.598 17.28C17.4153 17.5724 17.0948 17.75 16.75 17.75H4C3.44772 17.75 3 17.3023 3 16.75C3 16.1977 3.44772 15.75 4 15.75H16.1958L19.652 10.22C19.9447 9.75168 20.5617 9.6093 21.03 9.90201Z" fill="#323232"/>
</svg>
