<svg width="15" height="24" viewBox="0 0 15 24" fill="none" xmlns="http://www.w3.org/2000/svg">
<path fill-rule="evenodd" clip-rule="evenodd" d="M11.7067 3.77212L11.3922 2.74271C11.2545 2.2908 11.1292 1.8794 10.8316 1.44925C10.7013 1.26085 10.529 1.07999 10.3812 0.942087C10.2335 0.804185 10.0431 0.646429 9.8523 0.53508C9.4187 0.281989 9.1138 0.226135 8.7658 0.162382L8.7464 0.158825C8.2521 0.0682036 7.661 0 7 0C6.339 0 5.7479 0.0682036 5.2536 0.158825L5.2342 0.162382C4.88624 0.226135 4.58131 0.281989 4.14769 0.53508C3.95692 0.646429 3.76649 0.804185 3.61875 0.942087C3.47102 1.07999 3.29872 1.26085 3.16838 1.44925C2.8708 1.8794 2.74548 2.2908 2.60781 2.74272L2.29332 3.77212C2.2835 3.77755 2.2737 3.78303 2.26391 3.78857C1.49681 4.22328 0.87134 4.90561 0.47286 5.74245C0.20622 6.30242 0.0987303 6.90232 0.0484703 7.5626C-1.96919e-05 8.19955 -9.71283e-06 8.98303 2.8717e-07 9.93775V14.0623C-9.71283e-06 15.0169 -1.96919e-05 15.8005 0.0484703 16.4374C0.0987303 17.0977 0.20622 17.6976 0.47286 18.2576C0.87134 19.0944 1.49681 19.7768 2.26391 20.2114L2.29331 20.2279L2.60781 21.2572C2.74548 21.7092 2.8708 22.1206 3.16838 22.5507C3.29872 22.7391 3.47102 22.92 3.61875 23.0579C3.76649 23.1958 3.95692 23.3535 4.14769 23.4649C4.58131 23.718 4.88624 23.7739 5.2342 23.8376L5.2536 23.8412C5.7479 23.9318 6.339 24 7 24C7.661 24 8.2521 23.9318 8.7464 23.8412L8.7658 23.8376C9.1138 23.7739 9.4187 23.718 9.8523 23.4649C10.0431 23.3535 10.2335 23.1958 10.3812 23.0579C10.529 22.92 10.7013 22.7391 10.8316 22.5507C11.1292 22.1206 11.2545 21.7092 11.3922 21.2572L11.7067 20.2279L11.7361 20.2114C12.5032 19.7768 13.1287 19.0944 13.5271 18.2576C13.7938 17.6976 13.9013 17.0977 13.9515 16.4374C14 15.8005 14 15.017 14 14.0624V11.4545C14.5523 11.4545 15 10.9661 15 10.3636V8.18182C15 7.57932 14.5523 7.09091 14 7.09091C13.9676 7.09091 13.9355 7.09259 13.9039 7.09588C13.8403 6.61576 13.7296 6.1676 13.5271 5.74245C13.1287 4.90561 12.5032 4.22328 11.7361 3.78857C11.7263 3.78303 11.7165 3.77755 11.7067 3.77212ZM8.4149 2.31047C8.0151 2.23716 7.5356 2.18182 7 2.18182C6.4644 2.18182 5.9849 2.23716 5.5851 2.31047C5.2599 2.37011 5.2273 2.3794 5.0912 2.45885C5.0912 2.45885 5.0707 2.47173 5.0356 2.49933C5.0008 2.52668 4.96045 2.5612 4.91906 2.59984C4.87767 2.63847 4.84017 2.67659 4.81002 2.70989C4.77954 2.74356 4.76484 2.76348 4.76484 2.76348C4.695 2.86443 4.66038 2.93659 4.54989 3.2888C5.0034 3.27271 5.521 3.27272 6.1096 3.27273H7.8904C8.479 3.27272 8.9966 3.27271 9.4501 3.2888C9.3396 2.93659 9.3051 2.86453 9.2352 2.76358C9.2352 2.76358 9.2204 2.74354 9.19 2.70989C9.1598 2.67659 9.1223 2.63847 9.0809 2.59984C9.0396 2.5612 8.9992 2.52668 8.9644 2.49933C8.9292 2.47169 8.9089 2.45892 8.9089 2.45892C8.7728 2.37947 8.7401 2.37011 8.4149 2.31047ZM4.76477 21.2364C4.69493 21.1355 4.66039 21.0634 4.5499 20.7112C5.0033 20.7273 5.5209 20.7273 6.1094 20.7273H7.8904C8.4789 20.7273 8.9967 20.7273 9.4501 20.7112C9.3396 21.0634 9.3051 21.1355 9.2352 21.2364C9.2352 21.2364 9.2204 21.2565 9.19 21.2901C9.1598 21.3235 9.1223 21.3615 9.0809 21.4001C9.0396 21.4388 8.9992 21.4733 8.9644 21.5006C8.9292 21.5283 8.9089 21.5411 8.9089 21.5411C8.7728 21.6205 8.7401 21.6299 8.4149 21.6896C8.0151 21.7629 7.5356 21.8182 7 21.8182C6.4644 21.8182 5.9849 21.7629 5.5851 21.6896C5.2599 21.6299 5.2273 21.6206 5.0912 21.5411C5.0912 21.5411 5.0708 21.5283 5.0356 21.5006C5.0008 21.4733 4.96045 21.4388 4.91906 21.4001C4.87767 21.3615 4.84017 21.3235 4.81002 21.2901C4.77956 21.2565 4.76592 21.238 4.76477 21.2364ZM3.18586 5.72475C3.36611 5.62261 3.61857 5.54336 4.0979 5.49993C4.5892 5.45542 5.224 5.45455 6.152 5.45455H7.848C8.776 5.45455 9.4108 5.45542 9.9021 5.49993C10.3814 5.54336 10.6339 5.62261 10.8141 5.72475C11.216 5.95246 11.5436 6.30986 11.7523 6.74821C11.8459 6.94485 11.9186 7.22026 11.9584 7.74316C11.9992 8.27913 12 8.97167 12 9.984V14.016C12 15.0284 11.9992 15.7209 11.9584 16.2568C11.9186 16.7797 11.8459 17.0552 11.7523 17.2517C11.5436 17.6902 11.216 18.0476 10.8141 18.2752C10.6339 18.3773 10.3814 18.4567 9.9021 18.5001C9.4108 18.5446 8.776 18.5455 7.848 18.5455H6.152C5.224 18.5455 4.5892 18.5446 4.0979 18.5001C3.61857 18.4567 3.36611 18.3773 3.18586 18.2752C2.78404 18.0476 2.45642 17.6902 2.24769 17.2517C2.15406 17.0552 2.08141 16.7797 2.04161 16.2568C2.0008 15.7209 2 15.0284 2 14.016V9.984C2 8.97167 2.0008 8.27913 2.04161 7.74316C2.08141 7.22026 2.15406 6.94485 2.24769 6.74821C2.45642 6.30986 2.78404 5.95246 3.18586 5.72475Z" fill="#323232"/>
</svg>
